<svg width="128" height="100" viewBox="0 0 128 100" fill="none" xmlns="http://www.w3.org/2000/svg">
<path d="M109.974 57.4101C105.547 57.4364 101.713 58.556 98.4977 60.2229C97.3105 57.7489 96.1233 55.5872 95.9257 53.9729C95.7031 52.0979 95.431 50.9518 95.7031 48.7125C95.9749 46.4726 97.2116 43.2956 97.2116 43.0351C97.1866 42.8008 96.9393 41.6549 94.392 41.6289C91.8447 41.6029 89.6432 42.1497 89.3959 42.8529C89.1485 43.556 88.6539 45.1706 88.3323 46.8372C87.8871 49.2851 83.2373 57.957 80.5908 62.5143C79.7252 60.7435 78.9832 59.181 78.8345 57.9307C78.6122 56.056 78.3399 54.9099 78.6122 52.6706C78.8842 50.4307 80.1209 47.2539 80.1209 46.9935C80.0962 46.7591 79.8488 45.6133 77.3016 45.5872C74.7538 45.5612 72.5528 46.1081 72.3055 46.8112C72.0581 47.5143 71.7861 49.181 71.2419 50.7956C70.7223 52.4101 64.539 66.8893 62.9313 70.6654C62.1151 72.5924 61.3981 74.1289 60.8785 75.1706C60.3591 76.2122 60.8537 75.2487 60.8043 75.3529C60.3591 76.2383 60.1117 76.7331 60.1117 76.7331V76.7594C59.7655 77.4104 59.3945 78.0351 59.2211 78.0351C59.0974 78.0351 58.8501 76.2904 59.2705 73.8948C60.1857 68.8685 62.4117 61.0302 62.3872 60.7437C62.3872 60.6135 62.8074 59.2331 60.9524 58.5302C59.1469 57.8271 58.5041 58.9989 58.3554 58.9989C58.207 58.9989 58.0834 59.4156 58.0834 59.4156C58.0834 59.4156 60.0867 50.5877 54.2497 50.5877C50.5892 50.5877 45.5436 54.7805 43.0456 58.6086C41.4626 59.52 38.0989 61.4469 34.5373 63.5044C33.177 64.2857 31.7672 65.119 30.4316 65.8742L30.1598 65.5612C23.0861 57.6185 10.0022 51.9935 10.5463 41.3164C10.7442 37.4362 12.0303 27.2018 35.6755 14.806C55.0417 4.64974 70.5494 7.4362 73.2451 13.6341C77.0787 22.4883 64.9594 38.9466 44.8268 41.3164C37.1595 42.2279 33.1278 39.1029 32.114 37.931C31.0504 36.707 30.902 36.6549 30.5063 36.8893C29.8632 37.2539 30.259 38.3476 30.5063 38.9987C31.0999 40.6393 33.5732 43.556 37.7779 45.0143C41.4629 46.2904 50.466 46.9935 61.3486 42.5664C73.5421 37.5924 83.0644 23.7904 80.2696 12.2539C77.4252 0.509119 58.9248 -3.34505 41.4384 3.19141C31.0255 7.09766 19.7471 13.1914 11.6346 21.1862C1.98864 30.6654 0.45518 38.9466 1.09824 42.3841C3.34921 54.6497 19.4008 62.6445 25.8315 68.556C25.5099 68.738 25.2131 68.9203 24.9411 69.0768C21.7258 70.7432 9.48281 77.4883 6.41589 84.6234C2.95324 92.6963 6.96002 98.5039 9.63121 99.2851C17.8921 101.707 26.3509 97.3581 30.9265 90.1966C35.4772 83.0351 34.9333 73.7383 32.831 69.4935L32.7565 69.3372L35.2793 67.7747C36.912 66.7591 38.5196 65.8216 39.9292 65.014C39.138 67.2797 38.5688 69.962 38.2723 73.8682C37.926 78.4518 39.7068 84.389 42.0565 86.7328C43.0953 87.7482 44.3319 87.7745 45.0987 87.7745C47.8193 87.7745 49.056 85.4044 50.4163 82.5661C52.0982 79.1026 53.5822 75.0922 53.5822 75.0922C53.5822 75.0922 51.7272 85.9515 56.7975 85.9515C58.6525 85.9515 60.5075 83.4255 61.3484 82.1234V82.1495C61.3484 82.1495 61.3979 82.0713 61.4968 81.889C61.6006 81.7275 61.6995 81.5626 61.7936 81.3945V81.3424C62.5356 79.9883 64.1927 76.8893 66.666 71.7591C69.8564 65.1445 72.9235 56.8633 72.9235 56.8633C72.9235 56.8633 73.2203 58.8945 74.1355 62.2279C74.6794 64.2073 75.8665 66.3685 76.7817 68.4779C76.0397 69.5716 75.5945 70.1969 75.5945 70.1969L75.6192 70.2229C75.0259 71.0562 74.3578 71.9419 73.6655 72.8271C71.1427 76.0042 68.1253 79.6242 67.7296 80.6659C67.2596 81.8896 67.3586 82.801 68.2737 83.5305C68.9415 84.0513 70.1287 84.1552 71.3901 84.0513C73.6655 83.8948 75.2485 83.2961 76.0399 82.9312C77.2766 82.4625 78.6864 81.7594 80.0467 80.7177C82.52 78.7909 84.0288 76.0565 83.8804 72.4107C83.8062 70.4055 83.1878 68.4263 82.4211 66.5513C82.6437 66.2127 82.8665 65.8739 83.0889 65.5096C86.9967 59.4937 90.0142 52.8794 90.0142 52.8794C90.0142 52.8794 90.311 54.9107 91.2261 58.244C91.6958 59.9367 92.6359 61.7859 93.4769 63.6088C89.8163 66.7599 87.5161 70.4057 86.7247 72.8016C85.2654 77.2286 86.4032 79.2338 88.5549 79.7026C89.5193 79.9109 90.9046 79.4422 91.9431 78.9734C93.2293 78.5307 94.7875 77.7752 96.2222 76.6557C98.6956 74.7286 101.07 72.0463 100.946 68.4266C100.872 66.7599 100.452 65.1193 99.8828 63.5568C102.999 62.2026 107.03 61.4213 112.15 62.0724C123.157 63.4265 125.333 70.6661 124.913 73.687C124.493 76.7081 122.192 78.3745 121.425 78.8953C120.659 79.3901 120.411 79.5726 120.486 79.937C120.584 80.4841 120.931 80.4578 121.599 80.3539C122.514 80.1974 127.386 77.8799 127.584 72.3073C127.881 65.1448 121.425 57.3323 109.974 57.4101ZM25.0895 87.5403C21.4537 91.7331 16.3339 93.3216 14.1574 91.9674C11.8077 90.5351 12.7226 84.3633 17.1996 79.9101C19.9202 77.2018 23.4571 74.7018 25.782 73.1654C26.3014 72.8268 27.0929 72.3323 28.0327 71.7331C28.1811 71.6292 28.2801 71.5768 28.2801 71.5768C28.4532 71.4726 28.6511 71.3424 28.8489 71.2122C30.5061 77.5664 28.9231 83.1393 25.0895 87.5403ZM51.6777 68.5039C50.4163 71.7591 47.7451 80.1185 46.1375 79.6497C44.7521 79.2591 43.9115 72.931 45.8651 66.681C46.8545 63.5297 48.9568 59.7799 50.1935 58.3213C52.1971 55.9776 54.3734 55.1963 54.9177 56.1599C55.5608 57.4101 52.4692 66.4726 51.6777 68.5039ZM73.6161 79.5456C73.0719 79.8323 72.5773 80.0404 72.3547 79.8844C72.1815 79.7802 72.577 79.3896 72.577 79.3896C72.577 79.3896 75.3224 76.2906 76.4107 74.8583C77.029 74.0253 77.771 73.0617 78.5625 71.9677V72.2802C78.5627 76.0299 75.1495 78.5299 73.6161 79.5456ZM90.5333 75.4831C90.1376 75.1706 90.1873 74.207 91.5227 71.1862C92.0423 69.9883 93.2293 67.9831 95.2821 66.082C95.5295 66.8633 95.6781 67.6182 95.6531 68.3216C95.6286 73.0091 92.4628 74.7539 90.5333 75.4831Z" fill="#CF649A"/>
</svg>
